# xmcd CD database file
#
# Track frame offsets:
#	150
#	19948
#	37049
#	54892
#	76308
#	92840
#	106375
#	121215
#	137179
#	153064
#	169910
#	184274
#	199177
#	211924
#	227013
#	240852
#	257487
#	271700
#	284496
#	298420
#
# Disc length: 4170 seconds
#
# Revision: 0
# Processed by: cddbd v1.5.2PL0 Copyright (c) Steve Scherf et al.
# Submitted via: CDex 1.70beta2
#
DISCID=17104814
DTITLE=MasterTone 1065 - Jazz On Christmas Eve
DYEAR=1996
DGENRE=Jazz
TTITLE0=What Child Is This
TTITLE1=Deck The Halls
TTITLE2=God Rest Ye Merry Gentlemen
TTITLE3=Jingle Bells
TTITLE4=Low How A Rose E'er Blooming
TTITLE5=Holly and the Ivy
TTITLE6=Homecoming Journey
TTITLE7=Gook King Wenceslas
TTITLE8=Angel We Have Heard
TTITLE9=Oh Holy Night
TTITLE10=I Saw Three Ships
TTITLE11=First Noel
TTITLE12=Oh Little Town
TTITLE13=Amazing Grace
TTITLE14=Oh Christmas Tree
TTITLE15=Go Tell It
TTITLE16=Auld Lang Syne
TTITLE17=Hark The Herald Angels Sing
TTITLE18=Oh Come All Ye Faithful
TTITLE19=Silent Night
EXTD=YEAR: 1996
EXTT0=
EXTT1=
EXTT2=
EXTT3=
EXTT4=
EXTT5=
EXTT6=
EXTT7=
EXTT8=
EXTT9=
EXTT10=
EXTT11=
EXTT12=
EXTT13=
EXTT14=
EXTT15=
EXTT16=
EXTT17=
EXTT18=
EXTT19=
PLAYORDER=
